<?xml version="1.0" encoding="UTF-8" standalone="no"?>
<!-- Created with Inkscape (http://www.inkscape.org/) -->

<svg
   xmlns:dc="http://purl.org/dc/elements/1.1/"
   xmlns:cc="http://creativecommons.org/ns#"
   xmlns:rdf="http://www.w3.org/1999/02/22-rdf-syntax-ns#"
   xmlns:svg="http://www.w3.org/2000/svg"
   xmlns="http://www.w3.org/2000/svg"
   xmlns:sodipodi="http://sodipodi.sourceforge.net/DTD/sodipodi-0.dtd"
   xmlns:inkscape="http://www.inkscape.org/namespaces/inkscape"
   width="256"
   height="256"
   id="svg3004"
   version="1.1"
   inkscape:version="0.48.4 r9939"
   sodipodi:docname="Nouveau document 2">
  <defs
     id="defs3006" />
  <sodipodi:namedview
     id="base"
     pagecolor="#ffffff"
     bordercolor="#666666"
     borderopacity="1.0"
     inkscape:pageopacity="0.0"
     inkscape:pageshadow="2"
     inkscape:zoom="1"
     inkscape:cx="392.14285"
     inkscape:cy="62.285733"
     inkscape:document-units="px"
     inkscape:current-layer="layer1"
     showgrid="false"
     fit-margin-top="0"
     fit-margin-left="0"
     fit-margin-right="0"
     fit-margin-bottom="0"
     inkscape:window-width="1920"
     inkscape:window-height="1052"
     inkscape:window-x="3840"
     inkscape:window-y="0"
     inkscape:window-maximized="1" />
  <metadata
     id="metadata3009">
    <rdf:RDF>
      <cc:Work
         rdf:about="">
        <dc:format>image/svg+xml</dc:format>
        <dc:type
           rdf:resource="http://purl.org/dc/dcmitype/StillImage" />
        <dc:title></dc:title>
      </cc:Work>
    </rdf:RDF>
  </metadata>
  <g
     inkscape:label="Calque 1"
     inkscape:groupmode="layer"
     id="layer1"
     transform="translate(-224.85715,-176.64791)">
    <g
       transform="matrix(1.7066667,0,0,1.7066667,-92.58286,-544.20543)"
       id="g4197">
      <path
         transform="matrix(1.2605042,0,0,2.3076923,61.210084,-351.53773)"
         d="m 218,367.86218 c 0,17.94926 -26.63906,32.5 -59.5,32.5 -32.86094,0 -59.5,-14.55074 -59.5,-32.5 0,-17.94925 26.63906,-32.5 59.5,-32.5 32.86094,0 59.5,14.55075 59.5,32.5 z"
         sodipodi:ry="32.5"
         sodipodi:rx="59.5"
         sodipodi:cy="367.86218"
         sodipodi:cx="158.5"
         id="path3958"
         style="fill:#0096ff;fill-opacity:1;stroke:none"
         sodipodi:type="arc" />
      <path
         inkscape:connector-curvature="0"
         id="path2985"
         d="m 292.15625,429.15625 -0.125,0.5625 c -1.42857,6.65296 -7.20278,11.625 -14.125,11.625 -3.15236,0 -6.04179,-1.0445 -8.4375,-2.8125 a 2.50025,2.50025 0 0 0 -3.53125,0.53125 C 262.84527,443.39104 258.459,446 253.625,446 c -3.40407,0 -6.53872,-1.26599 -9.21875,-3.53125 a 2.50025,2.50025 0 0 0 -2.96875,-0.1875 C 239.73667,443.37461 237.76042,444 235.65625,444 c -5.83482,0 -10.66258,-4.76496 -11.09375,-10.9375 l -0.0937,-1.1875 c -1.61875,0.90481 -3.20806,1.85651 -4.75,2.875 1.17869,8.00111 7.82992,14.25 15.9375,14.25 2.47621,0 4.75639,-0.71496 6.84375,-1.75 3.22033,2.31729 7.03076,3.75 11.125,3.75 5.90459,0 11.11989,-2.93873 14.9375,-7.375 2.79074,1.58695 5.91073,2.71875 9.34375,2.71875 9.08041,0 16.66859,-6.37122 18.8125,-14.90625 -1.488,-0.80762 -3.01587,-1.57355 -4.5625,-2.28125 z m 13.9375,8.28125 c -5.97776,1.15511 -11.07509,5.42873 -12.875,11.59375 -2.67955,9.17791 2.84297,19.00094 12.1875,22.09375 1.27719,0.42272 2.5278,0.52526 3.78125,0.65625 2.01562,3.13558 5.05386,5.69369 8.90625,6.96875 3.31063,1.09573 6.70024,1.05277 9.75,0.15625 1.48724,1.31944 3.13342,2.52126 5,3.46875 l 1.8125,0.9375 c -0.42185,-2.22324 -0.94906,-4.41342 -1.5625,-6.5625 -1.05815,-0.71426 -2.02567,-1.51236 -2.875,-2.375 a 2.50025,2.50025 0 0 0 -2.75,-0.5625 c -2.26673,0.94252 -5.04154,1.10461 -7.8125,0.1875 -3.06573,-1.01469 -5.45317,-3.12817 -6.8125,-5.65625 a 2.50025,2.50025 0 0 0 -2.09375,-1.3125 c -1.26617,-0.0442 -2.53885,-0.24504 -3.78125,-0.65625 -6.89991,-2.28371 -10.82299,-9.5106 -8.9375,-15.96875 1.45211,-4.97377 5.83009,-8.06646 10.9375,-8.25 l 2.5,-0.0937 0,-0.1875 c -1.71972,-1.56487 -3.51493,-3.03606 -5.375,-4.4375 z m -96.0625,4.90625 c -1.45233,1.34585 -2.84546,2.76285 -4.1875,4.21875 l 1.625,0.3125 c 3.19828,0.57838 5.66649,2.3239 6.8125,4.9375 1.19777,2.73165 0.70604,5.93756 -1.25,8.78125 a 2.50025,2.50025 0 0 0 -0.1875,2.46875 c 0.097,0.20527 0.11501,0.24481 0.0625,0.125 0.65863,1.50209 0.36398,3.52639 -1.21875,5.84375 -1.58273,2.31736 -4.4119,4.69425 -8.03125,6.28125 -3.0211,1.32468 -6.08849,1.84876 -8.65625,1.75 a 2.50025,2.50025 0 0 0 -2.4375,1.625 c -0.93889,2.4741 -2.85679,4.78347 -5.53125,6.375 -0.32352,1.95652 -0.58104,3.93298 -0.75,5.9375 l 1.34375,-0.59375 c 4.06412,-1.82184 7.09249,-4.90146 8.875,-8.46875 2.94465,-0.11106 6.0474,-0.69934 9.15625,-2.0625 4.39281,-1.92615 7.92952,-4.77099 10.15625,-8.03125 2.00075,-2.9294 2.86732,-6.36013 1.9375,-9.5625 2.21472,-3.82051 2.89726,-8.35564 1.09375,-12.46875 -1.64991,-3.76281 -4.95753,-6.33145 -8.8125,-7.46875 z M 255.0625,474 c -3.60783,0 -6.84293,1.34097 -9.03125,3.625 -4.59334,0.16544 -8.66453,2.0752 -10.375,5.59375 -2.68189,1.56761 -4.78125,4.03556 -4.78125,7.1875 0,0.5545 0.0955,1.08712 0.21875,1.625 -1.78359,1.60283 -3,3.78295 -3,6.28125 0,3.43283 2.22696,6.18923 5.21875,7.78125 0.0813,5.55403 5.13022,9.75 10.9375,9.75 0.45078,0 0.84795,-0.13883 1.28125,-0.1875 0.88266,1.09194 2.12723,1.84558 3.4375,2.53125 -0.32332,7.39923 -1.13239,15.01239 -2.84375,23.0625 -14.32799,0.92764 -27.65448,3.14344 -39.1875,6.40625 l -1.28125,0.375 c 1.29257,1.4113 2.66654,2.75362 4.0625,4.0625 11.35556,-3.09122 24.46867,-5.21038 38.65625,-6 a 2.50025,2.50025 0 0 0 2.3125,-1.9375 c 2.20137,-9.64554 3.09732,-18.63773 3.40625,-27.28125 A 2.50025,2.50025 0 0 0 252.5,514.4375 c -1.94852,-0.75011 -3.12146,-1.82106 -3.4375,-2.5 a 2.50025,2.50025 0 0 0 -2.9375,-1.34375 c -0.60234,0.16412 -1.23018,0.25 -1.875,0.25 -3.49486,0 -5.96875,-2.36416 -5.96875,-4.875 0,-0.23968 0.0291,-0.54153 0.0937,-0.84375 a 2.50025,2.50025 0 0 0 -1.65625,-2.90625 c -2.37365,-0.77857 -3.625,-2.3729 -3.625,-3.90625 0,-1.21503 0.70852,-2.34438 2.25,-3.25 a 2.50025,2.50025 0 0 0 0.875,-3.4375 c -0.2291,-0.38825 -0.34375,-0.79479 -0.34375,-1.21875 0,-1.00122 0.78372,-2.21582 2.71875,-3.1875 a 2.50025,2.50025 0 0 0 1.28125,-1.5 c 0.35685,-1.17398 3.03034,-3.15625 6.8125,-3.15625 0.20614,0 0.3017,-10e-4 0.34375,0 a 2.50025,2.50025 0 0 0 2.125,-1.03125 C 250.0979,480.22762 252.34673,479 255.0625,479 c 2.45065,0 4.53318,0.99053 5.59375,2.15625 A 2.50025,2.50025 0 0 0 263.9375,481.5 c 1.32862,-0.94517 3.51784,-1.65625 6,-1.65625 3.67695,0 6.5401,1.68612 7.3125,3.0625 a 2.50025,2.50025 0 0 0 1.6875,1.21875 c 3.12217,0.64635 4.78125,2.50372 4.78125,3.96875 0,0.13955 -9e-5,0.31007 -0.0312,0.46875 a 2.50025,2.50025 0 0 0 1.09375,2.59375 c 1.97226,1.248 2.84375,2.6758 2.84375,4.03125 0,0.58941 -0.16781,1.22334 -0.5625,1.875 a 2.50025,2.50025 0 0 0 0.3125,3 c 0.97238,1.02074 1.53125,2.30121 1.53125,3.71875 0,2.57071 -1.83555,4.77673 -4.53125,5.46875 a 2.50025,2.50025 0 0 0 -1.84375,1.9375 c -0.39822,2.12348 -3.42135,4.5625 -7.65625,4.5625 -0.54731,0 -1.11261,-0.0439 -1.65625,-0.125 a 2.50025,2.50025 0 0 0 -2.875,2.5 c 0.11723,10.73678 1.48149,18.91283 3.28125,26.21875 a 2.50025,2.50025 0 0 0 2.28125,1.90625 c 13.30499,0.87932 25.63756,2.92598 36.375,5.84375 1.39596,-1.30888 2.76993,-2.6512 4.0625,-4.0625 l -1.28125,-0.375 c -10.9159,-3.08425 -23.45456,-5.21033 -36.90625,-6.21875 -1.38089,-5.93647 -2.3516,-12.59734 -2.625,-20.78125 5.22471,-0.21318 9.75205,-2.89084 11.34375,-7.125 4.0471,-1.57911 7.03125,-5.25933 7.03125,-9.75 0,-2.11033 -0.79985,-3.97541 -1.90625,-5.625 0.36612,-0.93464 0.625,-1.9104 0.625,-2.96875 0,-2.97565 -1.64413,-5.52151 -3.96875,-7.375 -0.16181,-4.13605 -3.61305,-7.08008 -7.78125,-8.25 -2.29246,-3.06386 -6.35923,-4.71875 -10.9375,-4.71875 -2.62749,0 -4.95371,0.69393 -7.03125,1.71875 C 260.79547,474.95121 258.06782,474 255.0625,474 z"
         style="font-size:medium;font-style:normal;font-variant:normal;font-weight:normal;font-stretch:normal;text-indent:0;text-align:start;text-decoration:none;line-height:normal;letter-spacing:normal;word-spacing:normal;text-transform:none;direction:ltr;block-progression:tb;writing-mode:lr-tb;text-anchor:start;baseline-shift:baseline;color:#000000;fill:#ffffff;fill-opacity:1;stroke:none;stroke-width:5;marker:none;visibility:visible;display:inline;overflow:visible;enable-background:accumulate;font-family:Sans;-inkscape-font-specification:Sans" />
    </g>
  </g>
</svg>
